<svg width="400" height="500" viewBox="0 0 400 500" xmlns="http://www.w3.org/2000/svg">
  <rect width="100%" height="100%" fill="#f0f0f0"/>
  <!-- Cat Ears -->
  <path d="M120 150 L120 50 L200 120 Z" fill="#5e5e5e"/>
  <path d="M280 150 L280 50 L200 120 Z" fill="#5e5e5e"/>
  <!-- Cat Face -->
  <circle cx="200" cy="200" r="120" fill="#5e5e5e"/>
  <!-- Eyes -->
  <ellipse cx="160" cy="180" rx="15" ry="25" fill="#fff"/>
  <ellipse cx="240" cy="180" rx="15" ry="25" fill="#fff"/>
  <circle cx="160" cy="180" r="8" fill="#000"/>
  <circle cx="240" cy="180" r="8" fill="#000"/>
  <!-- Nose -->
  <path d="M190 220 L210 220 L200 235 Z" fill="#pink"/>
  <!-- Mouth -->
  <path d="M200 235 Q180 250 170 240" stroke="#000" fill="none" stroke-width="3"/>
  <path d="M200 235 Q220 250 230 240" stroke="#000" fill="none" stroke-width="3"/>
  <!-- Whiskers -->
  <line x1="140" y1="220" x2="80" y2="210" stroke="#ccc" stroke-width="2"/>
  <line x1="140" y1="230" x2="80" y2="230" stroke="#ccc" stroke-width="2"/>
  <line x1="140" y1="240" x2="80" y2="250" stroke="#ccc" stroke-width="2"/>
  <line x1="260" y1="220" x2="320" y2="210" stroke="#ccc" stroke-width="2"/>
  <line x1="260" y1="230" x2="320" y2="230" stroke="#ccc" stroke-width="2"/>
  <line x1="260" y1="240" x2="320" y2="250" stroke="#ccc" stroke-width="2"/>
  <!-- Text -->
  <text x="50%" y="450" dominant-baseline="middle" text-anchor="middle" font-family="monospace" font-size="24" fill="#5e5e5e">Profile Cat</text>
</svg>